<?xml version="1.0" encoding="utf-8"?>
<svg xmlns="http://www.w3.org/2000/svg" version="1.1" width="1500" height="1200">

<circle cx="400" cy="400" r="7" fill="black" />
<circle cx="300" cy="400" r="7" fill="black" />
<circle cx="200" cy="400" r="7" fill="black" />
<circle cx="100" cy="400" r="7" fill="black" />
<circle cx="400" cy="300" r="7" fill="black" />
<circle cx="300" cy="300" r="7" fill="black" />
<circle cx="400" cy="100" r="7" fill="black" />
<circle cx="300" cy="100" r="7" fill="black" />
<circle cx="200" cy="100" r="7" fill="black" />
<circle cx="100" cy="100" r="7" fill="black" />
<circle cx="100" cy="200" r="7" fill="black" />
<circle cx="200" cy="200" r="7" fill="black" />
<circle cx="300" cy="200" r="7" fill="black" />
<circle cx="400" cy="200" r="7" fill="black" />
<circle cx="100" cy="300" r="7" fill="black" />
<circle cx="200" cy="300" r="7" fill="black" />
<line x1="400" y1="300" x2="400" y2="400" stroke="black" />
<line x1="300" y1="300" x2="300" y2="400" stroke="black" />
<line x1="100" y1="400" x2="200" y2="400" stroke="black" />
<line x1="300" y1="300" x2="400" y2="300" stroke="black" />
<line x1="200" y1="300" x2="300" y2="300" stroke="black" />
<line x1="100" y1="300" x2="200" y2="300" stroke="black" />
<line x1="300" y1="200" x2="400" y2="200" stroke="black" />
<line x1="200" y1="200" x2="300" y2="200" stroke="black" />
<line x1="100" y1="100" x2="200" y2="100" stroke="black" />
<line x1="200" y1="100" x2="300" y2="100" stroke="black" />
<line x1="300" y1="100" x2="400" y2="100" stroke="black" />
<line x1="100" y1="200" x2="200" y2="200" stroke="black" />
<line x1="200" y1="400" x2="300" y2="400" stroke="black" />
<line x1="300" y1="400" x2="400" y2="400" stroke="black" />
<line x1="100" y1="100" x2="100" y2="200" stroke="black" />
<line x1="200" y1="100" x2="200" y2="200" stroke="black" />
<line x1="300" y1="100" x2="300" y2="200" stroke="black" />
<line x1="400" y1="100" x2="400" y2="200" stroke="black" />
<line x1="100" y1="200" x2="100" y2="300" stroke="black" />
<line x1="200" y1="200" x2="200" y2="300" stroke="black" />
<line x1="300" y1="200" x2="300" y2="300" stroke="black" />
<line x1="400" y1="200" x2="400" y2="300" stroke="black" />
<line x1="100" y1="300" x2="100" y2="400" stroke="black" />
<line x1="200" y1="300" x2="200" y2="400" stroke="black" />


</svg>
